<svg id="Layer_1" data-name="Layer 1" xmlns="http://www.w3.org/2000/svg" xmlns:xlink="http://www.w3.org/1999/xlink" viewBox="0 0 511.67 444.9"><defs><style>.cls-1{fill:#c12906;}.cls-1,.cls-10,.cls-2,.cls-3,.cls-5,.cls-6,.cls-7,.cls-8,.cls-9{fill-rule:evenodd;}.cls-2{fill:#9b0d0a;}.cls-3{fill:url(#linear-gradient);}.cls-4{fill:#fff;}.cls-5{fill:#0692c1;}.cls-6{fill:#0a729b;}.cls-7{fill:url(#linear-gradient-2);}.cls-8{fill:#af00fa;}.cls-9{fill:#9700ff;}.cls-10{fill:url(#linear-gradient-3);}</style><linearGradient id="linear-gradient" x1="-2.07" y1="478.07" x2="-1.49" y2="478.07" gradientTransform="matrix(63.07, 62.05, 62.05, -63.07, -28967.64, 30326.55)" gradientUnits="userSpaceOnUse"><stop offset="0" stop-color="#212121" stop-opacity="0.62"/><stop offset="1" stop-color="#4d4d4d" stop-opacity="0"/></linearGradient><linearGradient id="linear-gradient-2" x1="-1.2" y1="474.03" x2="-0.62" y2="474.03" gradientTransform="matrix(63.07, 62.05, 62.05, -63.07, -28771.12, 30326.55)" xlink:href="#linear-gradient"/><linearGradient id="linear-gradient-3" x1="3.64" y1="485.26" x2="4.22" y2="485.26" gradientTransform="matrix(63.07, 62.05, 62.05, -63.07, -29772.83, 30580.29)" xlink:href="#linear-gradient"/></defs><path class="cls-1" d="M486.83,110V27.91A10,10,0,0,1,496.78,18h54.75l41,41V118.3H486.84V110Z" transform="translate(-81.75 -17.96)"/><path class="cls-2" d="M592.55,118.3v27.75c0,4.46-4.45,8.07-9.95,8.07H496.78c-5.49,0-9.95-3.61-9.95-8.07V118.3Z" transform="translate(-81.75 -17.96)"/><path class="cls-3" d="M551.51,18h0l41,41v34.3a.58.58,0,0,1-.74-.06c-1.94-1.94-38.46-35.95-38.46-38.7,0-12.08-1.83-36.28-1.85-36.57Z" transform="translate(-81.75 -17.96)"/><path class="cls-2" d="M551.51,18h0l41,41H561.87a10.38,10.38,0,0,1-10.36-10.36V18Z" transform="translate(-81.75 -17.96)"/><path class="cls-4" d="M501.8,145.7V125.33h5.55v7.91h7.4v-7.91h5.57V145.7h-5.57v-8.3h-7.4v8.3Z" transform="translate(-81.75 -17.96)"/><path class="cls-4" d="M527.58,145.7V130.14H523v-4.81H537.7v4.81h-4.57V145.7Z" transform="translate(-81.75 -17.96)"/><path class="cls-4" d="M563.78,145.7h-5.19l-1.2-8.81c-.09-.62-.16-1.31-.23-2.08s-.13-1.59-.19-2.49a24.69,24.69,0,0,1-.76,3.23c-.09.27-.15.47-.19.6l-2.76,9.55h-3.71l-2.76-9.55c0-.13-.1-.33-.17-.6a22.46,22.46,0,0,1-.77-3.21c-.05.77-.12,1.53-.19,2.29s-.16,1.51-.27,2.26l-1.19,8.81H539l3.14-20.37h5.5l3.07,10.5.11.36a14,14,0,0,1,.55,2.41,8.81,8.81,0,0,1,.2-1.2c.11-.45.25-1,.42-1.6l3.1-10.47h5.51l3.14,20.37Z" transform="translate(-81.75 -17.96)"/><path class="cls-4" d="M566.76,145.7V125.33h5.55v15.61h6.9v4.76Z" transform="translate(-81.75 -17.96)"/><path class="cls-4" d="M526.17,75.7v4.67l-15.76,6.48,15.76,6.42V98l-21.74-9v-4.3Z" transform="translate(-81.75 -17.96)"/><path class="cls-4" d="M531,101.61l13.23-31.13h4.08l-13.19,31.13Z" transform="translate(-81.75 -17.96)"/><path class="cls-4" d="M553.22,75.7l21.74,9V89l-21.74,9V93.27L569,86.85l-15.76-6.48Z" transform="translate(-81.75 -17.96)"/><path class="cls-5" d="M487.28,418.71V336.65a9.94,9.94,0,0,1,10-9.95H552l41,41V427H487.28v-8.32Z" transform="translate(-81.75 -17.96)"/><path class="cls-6" d="M593,427v27.75c0,4.46-4.45,8.07-9.94,8.07H497.22c-5.49,0-9.94-3.61-9.94-8.07V427Z" transform="translate(-81.75 -17.96)"/><path class="cls-7" d="M552,326.7h0l41,41V402a.59.59,0,0,1-.73-.06c-1.94-2-38.47-36-38.47-38.7,0-12.08-1.82-36.28-1.84-36.57Z" transform="translate(-81.75 -17.96)"/><path class="cls-6" d="M552,326.7h0l41,41H562.31A10.35,10.35,0,0,1,552,357.36V326.7Z" transform="translate(-81.75 -17.96)"/><path class="cls-4" d="M531.57,434.85v6.07a8.12,8.12,0,0,0-2.28-1.86,5.19,5.19,0,0,0-2.43-.59A5,5,0,0,0,523,440.1a6.1,6.1,0,0,0-1.48,4.27,5.7,5.7,0,0,0,1.51,4.06,5,5,0,0,0,3.84,1.61,5.08,5.08,0,0,0,2.43-.59,8.17,8.17,0,0,0,2.28-1.87v6.08a12.89,12.89,0,0,1-2.63,1,11.37,11.37,0,0,1-2.65.32,11.14,11.14,0,0,1-3.08-.4,8.51,8.51,0,0,1-2.59-1.2,10.26,10.26,0,0,1-3.48-3.85,12.11,12.11,0,0,1-.44-9.48,10.47,10.47,0,0,1,2.29-3.48,9.46,9.46,0,0,1,3.26-2.22,10.69,10.69,0,0,1,4-.74,11.37,11.37,0,0,1,2.65.32,12.89,12.89,0,0,1,2.63,1Z" transform="translate(-81.75 -17.96)"/><path class="cls-4" d="M535.6,447.84a10,10,0,0,0,2.44,2.1,4.75,4.75,0,0,0,2.4.7,2.73,2.73,0,0,0,1.83-.6,1.88,1.88,0,0,0,.72-1.51,2,2,0,0,0-.62-1.57,7.8,7.8,0,0,0-2.8-1.13,9,9,0,0,1-4.23-2.11,4.88,4.88,0,0,1-1.24-3.54,6.27,6.27,0,0,1,1.95-4.77,7.11,7.11,0,0,1,5.07-1.84,11.15,11.15,0,0,1,3.2.45,10.44,10.44,0,0,1,2.86,1.37l-1.74,4a7.4,7.4,0,0,0-1.94-1.21,5,5,0,0,0-2-.41,2.61,2.61,0,0,0-1.63.48,1.48,1.48,0,0,0-.63,1.23,1.52,1.52,0,0,0,.55,1.22,6,6,0,0,0,2.13.88l.25.07q3.39.92,4.46,2a5,5,0,0,1,1.1,1.8,6.86,6.86,0,0,1,.38,2.33A6.76,6.76,0,0,1,546,453a8,8,0,0,1-5.68,2,9.85,9.85,0,0,1-3.87-.73A10.92,10.92,0,0,1,533.1,452l2.5-4.14Z" transform="translate(-81.75 -17.96)"/><path class="cls-4" d="M552.16,447.84a9.86,9.86,0,0,0,2.44,2.1,4.69,4.69,0,0,0,2.4.7,2.76,2.76,0,0,0,1.83-.6,1.88,1.88,0,0,0,.72-1.51,2,2,0,0,0-.62-1.57,7.79,7.79,0,0,0-2.81-1.13,9.14,9.14,0,0,1-4.23-2.11,4.92,4.92,0,0,1-1.23-3.54,6.27,6.27,0,0,1,2-4.77,7.07,7.07,0,0,1,5.07-1.84,11.2,11.2,0,0,1,3.2.45,10.44,10.44,0,0,1,2.86,1.37l-1.74,4a7.29,7.29,0,0,0-2-1.21,5,5,0,0,0-2-.41,2.61,2.61,0,0,0-1.63.48,1.48,1.48,0,0,0-.63,1.23,1.52,1.52,0,0,0,.55,1.22,6,6,0,0,0,2.12.88l.25.07q3.4.92,4.47,2a5,5,0,0,1,1.1,1.8,6.86,6.86,0,0,1,.38,2.33,6.79,6.79,0,0,1-2.13,5.21,8.06,8.06,0,0,1-5.68,2,9.94,9.94,0,0,1-3.88-.73,11.16,11.16,0,0,1-3.36-2.26l2.51-4.14Z" transform="translate(-81.75 -17.96)"/><path class="cls-4" d="M528.89,372.75v5.64l-.49,0-.47,0a4.27,4.27,0,0,0-3.07.83c-.53.55-.79,1.69-.79,3.41v5.58c0,2.18-.36,3.74-1.08,4.67a6.38,6.38,0,0,1-3.86,2,6.36,6.36,0,0,1,3.87,1.93c.71.91,1.07,2.46,1.07,4.65V407c0,1.71.26,2.84.78,3.38a4.24,4.24,0,0,0,3,.81c.11,0,.27,0,.5,0s.39,0,.5,0v5.64l-1,0c-.42,0-.73,0-.94,0a26.94,26.94,0,0,1-4.19-.27,9.56,9.56,0,0,1-2.79-.87,4.1,4.1,0,0,1-1.93-2.06,13,13,0,0,1-.55-4.48v-6c0-2.07-.38-3.52-1.15-4.37s-2.08-1.26-3.93-1.26l-.39,0-.45,0V392l.42,0,.42,0a5.08,5.08,0,0,0,3.92-1.29c.78-.86,1.16-2.33,1.16-4.39v-5.91a12.92,12.92,0,0,1,.56-4.51,4.27,4.27,0,0,1,1.92-2.09,9.92,9.92,0,0,1,2.81-.86,27.39,27.39,0,0,1,4.22-.28l.9,0Z" transform="translate(-81.75 -17.96)"/><path class="cls-4" d="M537.62,388.55a4.47,4.47,0,0,1,1.36-3.32,4.59,4.59,0,0,1,3.34-1.34,4.56,4.56,0,0,1,4.69,4.66,4.6,4.6,0,0,1-1.35,3.37,4.71,4.71,0,0,1-8-3.37Zm.51,10.89h8.69l-7.2,14.62h-6.46Z" transform="translate(-81.75 -17.96)"/><path class="cls-4" d="M551.39,372.75l1,0,.89,0a27,27,0,0,1,4.2.28,10.1,10.1,0,0,1,2.82.86,4.27,4.27,0,0,1,1.92,2.09,12.63,12.63,0,0,1,.57,4.51v5.91c0,2.08.39,3.54,1.15,4.4S566,392,567.84,392l.42,0,.43,0v5.64l-.43,0a3.57,3.57,0,0,0-.42,0c-1.85,0-3.16.42-3.93,1.28s-1.15,2.3-1.15,4.35v6a12.75,12.75,0,0,1-.57,4.53,4.13,4.13,0,0,1-1.92,2.06,8.8,8.8,0,0,1-2.65.83,25.75,25.75,0,0,1-4.13.26c-.22,0-.56,0-1,0l-1.07,0v-5.64c.14,0,.32,0,.53,0s.38,0,.47,0a4.25,4.25,0,0,0,3-.8q.78-.8.78-3.39v-5.63c0-2.17.36-3.72,1.08-4.64a6.27,6.27,0,0,1,3.84-1.94,6.37,6.37,0,0,1-3.86-2c-.7-.91-1.06-2.48-1.06-4.69v-5.58c0-1.72-.26-2.86-.78-3.41a4,4,0,0,0-2.95-.83l-.52,0-.57,0v-5.64Z" transform="translate(-81.75 -17.96)"/><path class="cls-8" d="M487.69,264.13V182.06a10,10,0,0,1,9.95-9.95h54.75l41,41v59.32H487.69v-8.32Z" transform="translate(-81.75 -17.96)"/><path class="cls-9" d="M593.41,272.45V300.2c0,4.46-4.46,8.07-9.95,8.07H497.64c-5.5,0-9.95-3.61-9.95-8.07V272.45Z" transform="translate(-81.75 -17.96)"/><path class="cls-10" d="M552.37,172.11h0l41,41v34.31a.59.59,0,0,1-.73-.06c-1.94-1.94-38.46-35.95-38.46-38.7,0-12.08-1.83-36.28-1.85-36.57Z" transform="translate(-81.75 -17.96)"/><path class="cls-9" d="M552.37,172.11h0l41,41H562.73a10.35,10.35,0,0,1-10.36-10.35V172.11Z" transform="translate(-81.75 -17.96)"/><path class="cls-4" d="M531.62,279.47h5.54v13.22a14.75,14.75,0,0,1-.28,3.31,5.74,5.74,0,0,1-.91,2,5.57,5.57,0,0,1-2.09,1.75,6.44,6.44,0,0,1-2.78.59,7,7,0,0,1-3.43-.82,7.33,7.33,0,0,1-2.57-2.43l3.39-3.08a2.48,2.48,0,0,0,.59,1.39,1.49,1.49,0,0,0,1.15.49,1.11,1.11,0,0,0,1.1-.88,19.2,19.2,0,0,0,.29-4.38v-11.2Z" transform="translate(-81.75 -17.96)"/><path class="cls-4" d="M542.17,293.25a9.86,9.86,0,0,0,2.44,2.1,4.69,4.69,0,0,0,2.4.7,2.76,2.76,0,0,0,1.83-.6,1.88,1.88,0,0,0,.72-1.51,2,2,0,0,0-.62-1.57,7.79,7.79,0,0,0-2.81-1.13,9.23,9.23,0,0,1-4.23-2.1,5,5,0,0,1-1.23-3.55,6.27,6.27,0,0,1,2-4.77,7.07,7.07,0,0,1,5.07-1.84,11.2,11.2,0,0,1,3.2.45,10.58,10.58,0,0,1,2.86,1.37l-1.74,4a7.29,7.29,0,0,0-2-1.21,5,5,0,0,0-2-.41,2.61,2.61,0,0,0-1.63.48,1.48,1.48,0,0,0-.63,1.23,1.52,1.52,0,0,0,.55,1.22,6,6,0,0,0,2.12.88l.25.07q3.4.92,4.47,2a5,5,0,0,1,1.1,1.8,6.86,6.86,0,0,1,.38,2.33,6.76,6.76,0,0,1-2.13,5.21,8.06,8.06,0,0,1-5.68,2,9.94,9.94,0,0,1-3.88-.73,11,11,0,0,1-3.36-2.26l2.51-4.14Z" transform="translate(-81.75 -17.96)"/><path class="cls-4" d="M525.25,217.07h12.18v29.08a33.49,33.49,0,0,1-.61,7.28,13,13,0,0,1-2,4.5,12.22,12.22,0,0,1-4.6,3.84,14,14,0,0,1-6.12,1.3,15.35,15.35,0,0,1-7.52-1.81,15.93,15.93,0,0,1-5.67-5.35l7.47-6.76a5.4,5.4,0,0,0,1.29,3.06,3.35,3.35,0,0,0,2.54,1.07,2.45,2.45,0,0,0,2.4-1.93q.66-1.93.66-9.64V217.07Z" transform="translate(-81.75 -17.96)"/><path class="cls-4" d="M542.81,259.31l2.27-8.33a17.8,17.8,0,0,0,5.25,3.2,15.86,15.86,0,0,0,5.77,1.12,6,6,0,0,0,3.12-.66,2.12,2.12,0,0,0,1.07-1.91q0-2.05-4.32-3.06c-.93-.23-1.69-.42-2.26-.59-3.26-.89-5.64-2.07-7.12-3.53a7.65,7.65,0,0,1-2.21-5.68,8.71,8.71,0,0,1,3.38-7.19c2.25-1.8,5.31-2.69,9.16-2.69a27.6,27.6,0,0,1,6.05.69,32.6,32.6,0,0,1,6.29,2.12L567,240.3a18.68,18.68,0,0,0-4.41-2.23,13.63,13.63,0,0,0-4.46-.77,5.45,5.45,0,0,0-2.82.58,1.87,1.87,0,0,0-.95,1.69q0,1.65,4.29,2.78l1.47.4q5.65,1.62,7.88,3.81a7.93,7.93,0,0,1,2.22,5.92,9.37,9.37,0,0,1-3.65,7.67q-3.63,2.93-9.64,2.92a29.32,29.32,0,0,1-7.56-.93,24.75,24.75,0,0,1-6.55-2.83Z" transform="translate(-81.75 -17.96)"/><path d="M81.75,118.33H96.39V222.74H81.75Zm7.18,0h58.52v13.93H88.93Zm0,46.53h50.62v13.93H88.93Z" transform="translate(-81.75 -17.96)"/><path d="M162.53,148.2h14.65v74.54H162.53Zm36.12,14.07a17.78,17.78,0,0,0-6.82-1.22q-7,0-10.81,3.85t-3.84,10.66l-1.51-14.36a27.45,27.45,0,0,1,8.91-10.38,21.06,21.06,0,0,1,12.06-3.7,27.41,27.41,0,0,1,9.23,1.47,20.63,20.63,0,0,1,7.21,4.35l-9.55,12.93A12.33,12.33,0,0,0,198.65,162.27Z" transform="translate(-81.75 -17.96)"/><path d="M237.29,220a25.17,25.17,0,0,1-10.53-11.09q-3.62-7.29-3.62-17.56V179.22q0-10.12,3.62-17.34a25,25,0,0,1,10.53-11,34.11,34.11,0,0,1,16.58-3.77q9.7,0,16.59,3.77a25,25,0,0,1,10.52,11q3.63,7.22,3.63,17.34v12.35q0,10.2-3.63,17.42a25.2,25.2,0,0,1-10.52,11q-6.88,3.81-16.59,3.81T237.29,220Zm28.47-14.94q4.2-4.8,4.2-13.5V179.22q0-8.68-4.2-13.43t-11.89-4.74q-7.68,0-11.88,4.74t-4.2,13.43v12.35q0,8.7,4.2,13.5t11.88,4.81Q261.57,209.88,265.76,205.07Z" transform="translate(-81.75 -17.96)"/><path d="M305.43,148.2h14.65v74.54H305.43Zm45.24,29.37q0-7.9-4.09-12.21t-11.49-4.31q-7.18,0-11.09,3.81t-3.92,10.7l-1.51-14.36a26.67,26.67,0,0,1,9-10.41,21.89,21.89,0,0,1,12.32-3.67q12.14,0,18.78,7.94t6.64,22.44v45.24H350.67Z" transform="translate(-81.75 -17.96)"/><path d="M381.84,148.2h33.6v13.21h-33.6Zm11.88,69.91q-4.2-5-4.2-14.76V126.51h14.65v77a7,7,0,0,0,1.08,4.2,3.65,3.65,0,0,0,3.16,1.48h7V223.1H407Q397.92,223.1,393.72,218.11Z" transform="translate(-81.75 -17.96)"/><path d="M134.7,238.33h14.65V342.74H134.7Zm7.11,0h60v13.93h-60Zm0,45.6h52.07v13.93H141.81Zm0,44.88h60v13.93h-60Z" transform="translate(-81.75 -17.96)"/><path d="M221.16,268.2h14.65v74.54H221.16Zm45.24,29.37q0-7.9-4.09-12.21t-11.49-4.31q-7.19,0-11.09,3.81t-3.92,10.7L234.3,281.2a26.61,26.61,0,0,1,9-10.41,21.85,21.85,0,0,1,12.31-3.67q12.14,0,18.78,7.94t6.64,22.44v45.24H266.4Z" transform="translate(-81.75 -17.96)"/><path d="M313,340.48a22.44,22.44,0,0,1-8.79-10.38,40.34,40.34,0,0,1-3-16.37V297.28a41.44,41.44,0,0,1,2.94-16.44,22.39,22.39,0,0,1,8.58-10.38,24.86,24.86,0,0,1,13.54-3.55,22.38,22.38,0,0,1,12.1,3.44,25.43,25.43,0,0,1,8.87,9.7l-1.51,15.22a17.63,17.63,0,0,0-1.72-8.11,11.8,11.8,0,0,0-5-5.14,16.6,16.6,0,0,0-7.94-1.76q-7.25,0-11.24,4.53t-4,12.71v16.23q0,8.11,4,12.53T331,330.67a16,16,0,0,0,7.94-1.83,12.11,12.11,0,0,0,5-5.27,18.31,18.31,0,0,0,1.72-8.26l1,15.72a21.3,21.3,0,0,1-7.29,9.27A20.42,20.42,0,0,1,326.94,344,26.18,26.18,0,0,1,313,340.48Zm32.71-102.15h14.65V342.74H345.68Z" transform="translate(-81.75 -17.96)"/></svg>