<svg id="Layer_1" data-name="Layer 1" xmlns="http://www.w3.org/2000/svg" xmlns:xlink="http://www.w3.org/1999/xlink" viewBox="0 0 579.24 421.65"><defs><style>.cls-1{fill:#4381b1;}.cls-2{fill:#e09e19;}.cls-3{fill:#f3272b;}.cls-4{fill:#0e70b8;}.cls-5{fill:#6182b8;}.cls-6{fill:#c12906;}.cls-10,.cls-11,.cls-12,.cls-13,.cls-14,.cls-15,.cls-6,.cls-7,.cls-8{fill-rule:evenodd;}.cls-7{fill:#9b0d0a;}.cls-8{fill:url(#linear-gradient);}.cls-9{fill:#fff;}.cls-10{fill:#0692c1;}.cls-11{fill:#0a729b;}.cls-12{fill:url(#linear-gradient-2);}.cls-13{fill:#af00fa;}.cls-14{fill:#9700ff;}.cls-15{fill:url(#linear-gradient-3);}</style><linearGradient id="linear-gradient" x1="-3.36" y1="471.91" x2="-2.78" y2="471.91" gradientTransform="matrix(63.07, 62.05, 62.05, -63.07, -28967.64, 30326.55)" gradientUnits="userSpaceOnUse"><stop offset="0" stop-color="#212121" stop-opacity="0.62"/><stop offset="1" stop-color="#4d4d4d" stop-opacity="0"/></linearGradient><linearGradient id="linear-gradient-2" x1="-2.5" y1="472.76" x2="-1.92" y2="472.76" gradientTransform="matrix(63.07, 62.05, 62.05, -63.07, -28771.12, 30326.55)" xlink:href="#linear-gradient"/><linearGradient id="linear-gradient-3" x1="2.33" y1="481.52" x2="2.9" y2="481.52" gradientTransform="matrix(63.07, 62.05, 62.05, -63.07, -29772.83, 30580.29)" xlink:href="#linear-gradient"/></defs><path d="M116.78,40.33h14.65V144.74H116.78Zm7.18,0h58.52V54.26H124Zm0,46.53h50.62v13.93H124Z" transform="translate(-23.58 -40.33)"/><path d="M212.21,115.51q0,7.83,4,12.1t11.24,4.27q7.17,0,11.13-3.8t4-10.84l1,15.58a21.46,21.46,0,0,1-7.47,9.26,21.11,21.11,0,0,1-12.71,3.74q-12.34,0-19.06-7.94t-6.72-22.37V70.2h14.65ZM242.52,70.2h14.57v74.54H242.52Z" transform="translate(-23.58 -40.33)"/><path d="M294,125.49a6.54,6.54,0,0,0,1.19,4.2,4,4,0,0,0,3.34,1.48h6.89V145.1H296.8q-8.32,0-12.89-5.17t-4.56-14.58v-85H294Z" transform="translate(-23.58 -40.33)"/><path d="M336.59,125.49a6.54,6.54,0,0,0,1.18,4.2,4,4,0,0,0,3.34,1.48H348V145.1h-8.61q-8.34,0-12.89-5.17t-4.56-14.58v-85h14.65Z" transform="translate(-23.58 -40.33)"/><path d="M74.55,264.38A53.81,53.81,0,0,1,62,260.07a53.27,53.27,0,0,1-11-7.18l9.12-11.2a41.22,41.22,0,0,0,13.14,7.75A45.52,45.52,0,0,0,88.84,252q11.35,0,17.6-4.2a13.5,13.5,0,0,0,6.24-11.89v-.07q0-5.46-2.83-8.65a17,17,0,0,0-7.33-4.74,81.17,81.17,0,0,0-11.59-2.84,1.45,1.45,0,0,0-.47-.07,1.45,1.45,0,0,1-.47-.07l-1.08-.22a112.05,112.05,0,0,1-17-4.05A24.08,24.08,0,0,1,60.62,207Q56,201,56,189.91v-.07q0-9.69,4.35-16.55A27.26,27.26,0,0,1,73,162.84q8.34-3.59,20-3.59a50.23,50.23,0,0,1,11,1.22,54.91,54.91,0,0,1,10.7,3.63,60.8,60.8,0,0,1,10.38,6.07l-8.33,11.63a48.85,48.85,0,0,0-11.89-6.57A34.06,34.06,0,0,0,93,173q-10.71,0-16.63,4.27t-5.92,12.1v.07q0,5.39,3.05,8.48a18.69,18.69,0,0,0,7.61,4.56,117,117,0,0,0,12.68,3,3.89,3.89,0,0,0,.54.1l.53.11.79.15c.29,0,.55.09.79.14a86.69,86.69,0,0,1,15.84,4.6,24.69,24.69,0,0,1,10.63,8.58q4.26,5.92,4.27,16.19v.14a28.81,28.81,0,0,1-4.52,16.34,28.25,28.25,0,0,1-13.11,10.34q-8.58,3.56-20.72,3.56A68.42,68.42,0,0,1,74.55,264.38Z" transform="translate(-23.58 -40.33)"/><path d="M140.83,190.2h33.61v13.21H140.83Zm11.89,69.91q-4.2-5-4.2-14.76V168.51h14.65v77a7,7,0,0,0,1.07,4.2,3.65,3.65,0,0,0,3.16,1.48h7V265.1H166Q156.91,265.1,152.72,260.11Z" transform="translate(-23.58 -40.33)"/><path d="M197.78,260.11Q191,254.4,191,242.76q0-11.06,6.24-16.58t18.89-5.53h21.18l1,11.77H216.16q-5.74,0-8.58,2.55t-2.84,7.79q0,5.69,3.77,8.41C211,253,214.84,253.9,220,253.9q8.4,0,12.53-1.8c2.75-1.2,4.13-3.06,4.13-5.6L238.14,257a17.28,17.28,0,0,1-4.78,5,20.92,20.92,0,0,1-6.57,2.91,33.77,33.77,0,0,1-8.4,1Q204.61,265.82,197.78,260.11Zm38.85-42.62q0-7.34-3.92-11.38t-11.09-4.06a28.53,28.53,0,0,0-8.73,1.36,25.88,25.88,0,0,0-7.57,3.81l-10.7-7.33A28,28,0,0,1,205.78,192a40.36,40.36,0,0,1,15.41-2.84,35.49,35.49,0,0,1,15.87,3.27,22.73,22.73,0,0,1,10.05,9.48,30.39,30.39,0,0,1,3.45,15v47.9H236.63Z" transform="translate(-23.58 -40.33)"/><path d="M285.49,262a25.75,25.75,0,0,1-11-11.06q-3.81-7.24-3.8-17.52V221.15q0-10.12,3.8-17.31a25.72,25.72,0,0,1,11-11q7.22-3.76,17.42-3.77a41.58,41.58,0,0,1,10.95,1.4,32.84,32.84,0,0,1,9.23,4.06,25.34,25.34,0,0,1,6.82,6.46l-10.56,9.48A22.12,22.12,0,0,0,312,205a21.06,21.06,0,0,0-8.84-1.94q-8.47,0-13.14,4.74t-4.67,13.36v12.28q0,8.83,4.64,13.64c3.08,3.21,7.48,4.81,13.17,4.81A20,20,0,0,0,312,249.8a21.7,21.7,0,0,0,7.32-5.89l10.56,10.2a26.25,26.25,0,0,1-6.9,6.36,32.52,32.52,0,0,1-9.22,4,42.23,42.23,0,0,1-10.88,1.37Q292.71,265.82,285.49,262Z" transform="translate(-23.58 -40.33)"/><path d="M346.06,160.33h14.65V264.74H346.06Zm6.32,76.12,38.35-46.25H408l-56.51,63.62Zm17.31-14.73L379.1,212l32.53,52.78H395.69Z" transform="translate(-23.58 -40.33)"/><g id="layer1"><g id="g1894"><path id="path8615" class="cls-1" d="M529.1,345.75c-29.19,0-27.37,12.66-27.37,12.66l0,13.12h27.86v3.93H490.7S472,373.35,472,402.8s16.3,28.42,16.3,28.42h9.73V417.55s-.52-16.31,16.05-16.31h27.63s15.53.25,15.53-15V361S559.61,345.75,529.1,345.75Zm-15.36,8.82a5,5,0,1,1-5,5A5,5,0,0,1,513.74,354.57Z" transform="translate(-23.58 -40.33)"/><path id="path8620" class="cls-2" d="M529.93,460.16c29.2,0,27.38-12.67,27.38-12.67l0-13.11H529.41v-3.94h38.93S587,432.56,587,403.1s-16.31-28.41-16.31-28.41H561v13.67s.53,16.3-16,16.3H517.3s-15.52-.25-15.52,15v25.22S499.42,460.16,529.93,460.16Zm15.37-8.83a5,5,0,1,1,5-5A5,5,0,0,1,545.3,451.33Z" transform="translate(-23.58 -40.33)"/></g></g><path class="cls-3" d="M529.33,225.09a154.83,154.83,0,0,1-13.5-13.49,40.76,40.76,0,0,1-6.35-9.59c-2.53-5.68-2.07-11,1.78-16a58.2,58.2,0,0,1,9.54-9.48c4.19-3.41,8.43-6.75,12.61-10.17,1.37-1.11,2.64-2.35,3.9-3.58,7.72-7.51,11.61-16.29,8.86-27.38.82.28,1.06.9,1.36,1.38,3.52,5.69,3.74,11.7,1.62,17.88-2.51,7.29-7.37,12.94-12.82,18.17-2.51,2.41-5.25,4.56-7.93,6.77a42,42,0,0,0-8.82,9.47,17.23,17.23,0,0,0-1.14,18,66.69,66.69,0,0,0,5.76,9.24,67.87,67.87,0,0,1,4.61,7.14c.25.49.76.94.5,1.61Z" transform="translate(-23.58 -40.33)"/><path class="cls-4" d="M580.3,276.48c1.38-.23,2.05.77,2.6,1.71a2.3,2.3,0,0,1-.54,2.8,13.59,13.59,0,0,1-4.81,3.12,73.77,73.77,0,0,1-16.93,4.76c-18.37,3.29-36.87,3.78-55.45,2.68a274.14,274.14,0,0,1-29.3-3.31,17.45,17.45,0,0,1-5.05-1.52c-2.57-1.31-2.85-3-.82-5.05a14.93,14.93,0,0,1,3.83-2.61,42.9,42.9,0,0,1,15.6-4.54,10,10,0,0,1,5.33.73c-1.83.29-3.37.46-4.88.78a29.19,29.19,0,0,0-9,3.26c-.81.48-1.82,1-1.68,2.13s1.16,1.33,2,1.66a54.81,54.81,0,0,0,14.68,3.18,290.69,290.69,0,0,0,68-1.29,59.64,59.64,0,0,0,12.5-2.8,9.81,9.81,0,0,0,3.73-2.11c1.23-1.21,1.26-2.22.17-3.63Z" transform="translate(-23.58 -40.33)"/><path class="cls-3" d="M565.78,168.92a3.48,3.48,0,0,1-1.6,1.24,138.22,138.22,0,0,0-15.56,10.46,36.42,36.42,0,0,0-7,7,10.66,10.66,0,0,0-.8,12.19,67.69,67.69,0,0,0,4.89,7.33c3.8,5.31,3.75,10.26-.17,15.49a30.65,30.65,0,0,1-8,7.14c-.36.24-.72.49-1.18.24.54-.71,1.13-1.4,1.63-2.14,3.23-4.76,3-9.47-.66-13.86a40.16,40.16,0,0,1-5.11-7.36c-3.78-7.4-3-14.38,2.35-20.72a40,40,0,0,1,10.56-8.51,89.25,89.25,0,0,1,19.44-8.25C565,169.1,565.31,169,565.78,168.92Z" transform="translate(-23.58 -40.33)"/><path class="cls-4" d="M562.65,232.52c-4.42,3.72-9.79,4.5-15.12,5.33a207.51,207.51,0,0,1-50.66,1.57,47.72,47.72,0,0,1-11.78-2.23c-1.28-.46-3-.81-3.07-2.44s1.53-2.18,2.74-2.77a60.64,60.64,0,0,1,23.37-6.26c.48,0,1,0,1.45,0a8.33,8.33,0,0,1,.87.11c-2.3.66-4.23,1.2-6.15,1.78a44.65,44.65,0,0,0-8.22,3.14,7.81,7.81,0,0,0-1.22.77c-1.47,1.13-1.39,2.09.34,2.77a29.51,29.51,0,0,0,9.45,1.58,264.91,264.91,0,0,0,41.29-1.44c4.89-.51,9.76-1.18,14.61-2A4.55,4.55,0,0,1,562.65,232.52Z" transform="translate(-23.58 -40.33)"/><path class="cls-4" d="M555.61,270.42a62.51,62.51,0,0,1-13.28,4.14c-11,2.16-22.07,2.36-33.05-.45A20.81,20.81,0,0,1,502,271c-2.78-2-2.71-4.22.16-6.08a17.49,17.49,0,0,1,4.81-2.05c-.15.95-1.24,1.47-.73,2.39a3.46,3.46,0,0,0,2.53,1.53,77.47,77.47,0,0,0,13.83,1.54,92.64,92.64,0,0,0,22.46-2,3.8,3.8,0,0,1,2.87.49A60.86,60.86,0,0,0,555.61,270.42Z" transform="translate(-23.58 -40.33)"/><path class="cls-4" d="M503.21,244.74c.08.48-.27.62-.45.85-1.75,2.2-1.33,3.63,1.38,4.51s5.8.92,8.72,1.18a132.46,132.46,0,0,0,37.48-2.34,2.56,2.56,0,0,1,2.47.61,21.1,21.1,0,0,0,5.62,3.3,82.89,82.89,0,0,1-10.4,2.57,123.26,123.26,0,0,1-37.65,1.68,38.35,38.35,0,0,1-11.78-2.91c-1.58-.73-3.41-1.47-3.48-3.58s1.67-2.84,3.12-3.73A20.73,20.73,0,0,1,503.21,244.74Z" transform="translate(-23.58 -40.33)"/><path class="cls-4" d="M491.26,295.47a270.92,270.92,0,0,0,35.08,1.86c16.45-.16,32.77-1.45,48.77-5.58,2-.52,4-1.17,6-1.86a23.84,23.84,0,0,0,9.07-5,5.93,5.93,0,0,1-2.2,4.38,21.12,21.12,0,0,1-6.81,4.13c-6.54,2.65-13.43,3.92-20.38,4.81a249,249,0,0,1-51.21.93,70.05,70.05,0,0,1-15.92-2.75C492.82,296.09,492,295.76,491.26,295.47Z" transform="translate(-23.58 -40.33)"/><path class="cls-4" d="M564.54,256.37c.32-.84,1-1,1.55-1.27a51.27,51.27,0,0,0,12.53-9.1,18.73,18.73,0,0,0,4-5.93c1.42-3.52,1.34-6.94-1.17-10a10.3,10.3,0,0,0-10.18-3.7c-1,.16-1.95.46-3.15.75a3.42,3.42,0,0,1,2-1.73c4.83-1.81,9.63-1.92,14.25.64A11.12,11.12,0,0,1,589,241.35a21.08,21.08,0,0,1-6.84,7.51C577.75,252,568.81,255.87,564.54,256.37Z" transform="translate(-23.58 -40.33)"/><path class="cls-3" d="M529.31,225.05l.07.07,0,0Z" transform="translate(-23.58 -40.33)"/><path class="cls-4" d="M580.27,276.43l.11,0c0-.13,0-.12-.08,0Z" transform="translate(-23.58 -40.33)"/><path class="cls-5" d="M456.22,113.81c1.61-2.91,1.65-6.24,2.29-9.38,3-14.81,5.92-29.65,8.81-44.49.32-1.64.92-2.33,2.78-2.28,6.42.14,12.84,0,19.26.06,3.72,0,7.36.45,10.62,2.45,4.61,2.83,6.53,7.2,6.61,12.35.14,9.28-2.92,17.27-10.18,23.38-4,3.33-8.77,4.12-13.68,4.39-3.44.19-6.9.13-10.35,0-1.37,0-2,.32-2.21,1.76-.69,4-1.64,8-2.33,12-.22,1.32-.69,1.73-2,1.69-3.2-.09-6.41,0-9.62-.06Zm26.18-47c-1,0-2.44.19-3.87.18-1,0-1.38.38-1.57,1.34q-2.08,10.7-4.28,21.38c-.25,1.22.05,1.74,1.38,1.73a51,51,0,0,0,12.62-1.3,7.71,7.71,0,0,0,4.9-3.61,23.5,23.5,0,0,0,3.15-14.28,4.6,4.6,0,0,0-3.58-4.28C488.42,67.13,485.62,67.11,482.4,66.78Z" transform="translate(-23.58 -40.33)"/><path class="cls-5" d="M552.56,115.77c3.74-18.92,7.44-37.58,11.1-56.24.28-1.43.93-1.88,2.42-1.86,6.49.1,13,0,19.49,0a25,25,0,0,1,6.9.79,13.86,13.86,0,0,1,10.29,13,29.9,29.9,0,0,1-4,17.27c-4.43,7.52-11,11.4-19.74,11.54-3.53.06-7.06.09-10.59,0-1.29,0-1.75.34-2,1.68-.66,3.94-1.64,7.83-2.3,11.77-.27,1.62-.91,2.08-2.49,2C558.73,115.68,555.77,115.77,552.56,115.77ZM573.74,91.3c1.2-.06,2.41,0,3.6-.19,4.39-.57,8.91-1,11.16-5.69a25.07,25.07,0,0,0,2.57-12.79,4.81,4.81,0,0,0-4-4.76A43.25,43.25,0,0,0,574.48,67c-1,.06-1.06.61-1.22,1.39-1.22,6.2-2.53,12.37-3.75,18.57C568.57,91.72,568.62,91.73,573.74,91.3Z" transform="translate(-23.58 -40.33)"/><path class="cls-5" d="M530.33,42.13c-1,4.6-1.81,9.07-2.8,13.5-.37,1.67,0,2.12,1.78,2.13,5.2,0,10.44-.53,15.55,1,6,1.8,8.64,5.59,7.54,11.75-1.72,9.6-3.73,19.16-5.55,28.75-.19,1-.6,1.13-1.41,1.12-3.29,0-6.58,0-10.14,0,1.36-6.77,2.7-13.38,4-20,.51-2.59,1.1-5.18,1.4-7.8.39-3.41-1.11-5.2-4.54-5.4-3.21-.19-6.43,0-9.64-.14-1.28,0-1.33.67-1.52,1.59-2,10-4.07,20.07-6,30.13-.25,1.29-.61,1.71-1.91,1.65-2.57-.1-5.15-.14-7.71,0-1.71.11-1.8-.57-1.52-1.94,2-9.56,3.86-19.14,5.78-28.71,1.72-8.55,3.51-17.08,5.13-25.65.31-1.62.9-2.08,2.48-2C524.2,42.21,527.17,42.13,530.33,42.13Z" transform="translate(-23.58 -40.33)"/><path class="cls-6" d="M23.59,418.11V336.55a9.88,9.88,0,0,1,9.88-9.88H87.88l40.76,40.76v58.95h-105v-8.27Z" transform="translate(-23.58 -40.33)"/><path class="cls-7" d="M128.64,426.38V454c0,4.43-4.42,8-9.88,8H33.47c-5.46,0-9.89-3.59-9.89-8V426.38Z" transform="translate(-23.58 -40.33)"/><path class="cls-8" d="M87.86,326.67h0l40.77,40.77v34.08a.58.58,0,0,1-.73,0C126,399.54,89.7,365.74,89.7,363c0-12-1.82-36.06-1.84-36.34Z" transform="translate(-23.58 -40.33)"/><path class="cls-7" d="M87.86,326.67h0l40.77,40.77H98.15a10.29,10.29,0,0,1-10.29-10.3V326.67Z" transform="translate(-23.58 -40.33)"/><path class="cls-9" d="M38.46,453.6V433.36H44v7.87h7.36v-7.87h5.53V453.6H51.33v-8.24H44v8.24Z" transform="translate(-23.58 -40.33)"/><path class="cls-9" d="M64.08,453.6V438.15H59.54v-4.79H74.13v4.79H69.6V453.6Z" transform="translate(-23.58 -40.33)"/><path class="cls-9" d="M100.05,453.6H94.89l-1.19-8.75c-.08-.62-.16-1.3-.23-2.06s-.13-1.58-.19-2.47a23.23,23.23,0,0,1-.76,3.2l-.18.6-2.75,9.48H85.91l-2.75-9.48c0-.13-.09-.33-.16-.6a21.76,21.76,0,0,1-.76-3.19c-.06.77-.12,1.52-.2,2.27s-.16,1.5-.26,2.25l-1.19,8.75H75.46l3.13-20.24h5.46l3,10.44.11.36a12.82,12.82,0,0,1,.54,2.39,10.36,10.36,0,0,1,.21-1.19q.15-.66.42-1.59l3.08-10.41h5.47l3.12,20.24Z" transform="translate(-23.58 -40.33)"/><path class="cls-9" d="M103,453.6V433.36h5.52v15.51h6.86v4.73Z" transform="translate(-23.58 -40.33)"/><path class="cls-9" d="M62.68,384v4.64L47,395.12l15.67,6.38v4.66l-21.61-8.91V393Z" transform="translate(-23.58 -40.33)"/><path class="cls-9" d="M67.51,409.79l13.15-30.94h4.06L71.6,409.79Z" transform="translate(-23.58 -40.33)"/><path class="cls-9" d="M89.56,384l21.6,8.94v4.27l-21.6,8.91V401.5l15.66-6.38-15.66-6.44Z" transform="translate(-23.58 -40.33)"/><path class="cls-10" d="M327,418.11V336.55a9.88,9.88,0,0,1,9.88-9.88h54.41L432,367.43v58.95H327v-8.27Z" transform="translate(-23.58 -40.33)"/><path class="cls-11" d="M432,426.38V454c0,4.43-4.42,8-9.88,8H336.84c-5.46,0-9.88-3.59-9.88-8V426.38Z" transform="translate(-23.58 -40.33)"/><path class="cls-12" d="M391.23,326.67h0L432,367.44v34.08a.58.58,0,0,1-.73,0c-1.93-1.93-38.22-35.73-38.22-38.46,0-12-1.82-36.06-1.84-36.34Z" transform="translate(-23.58 -40.33)"/><path class="cls-11" d="M391.23,326.67h0L432,367.44h-30.5a10.31,10.31,0,0,1-10.29-10.3V326.67Z" transform="translate(-23.58 -40.33)"/><path class="cls-9" d="M371,434.14v6a8.28,8.28,0,0,0-2.26-1.84,5.17,5.17,0,0,0-2.41-.59,5,5,0,0,0-3.85,1.62A6.05,6.05,0,0,0,361,443.6a5.67,5.67,0,0,0,1.5,4,5,5,0,0,0,3.83,1.6,5.16,5.16,0,0,0,2.41-.58A8.58,8.58,0,0,0,371,446.8v6a13.53,13.53,0,0,1-2.61,1,10.7,10.7,0,0,1-2.63.32,11.34,11.34,0,0,1-3.06-.39,9,9,0,0,1-2.58-1.2,10.15,10.15,0,0,1-3.46-3.83,12,12,0,0,1-.43-9.42,10.29,10.29,0,0,1,2.27-3.45,9.31,9.31,0,0,1,3.24-2.21,10.58,10.58,0,0,1,4-.74,11.2,11.2,0,0,1,2.63.32,13.53,13.53,0,0,1,2.61.95Z" transform="translate(-23.58 -40.33)"/><path class="cls-9" d="M375,447.06a9.92,9.92,0,0,0,2.43,2.08,4.63,4.63,0,0,0,2.38.7,2.72,2.72,0,0,0,1.82-.6,1.89,1.89,0,0,0,.71-1.51,2,2,0,0,0-.61-1.55,7.72,7.72,0,0,0-2.79-1.13,9,9,0,0,1-4.2-2.09,4.87,4.87,0,0,1-1.23-3.52,6.2,6.2,0,0,1,1.94-4.74,7,7,0,0,1,5-1.83,11,11,0,0,1,3.17.45,10.16,10.16,0,0,1,2.84,1.36l-1.72,4a7.52,7.52,0,0,0-1.93-1.21,5.14,5.14,0,0,0-2-.41,2.6,2.6,0,0,0-1.62.48,1.57,1.57,0,0,0-.07,2.44,5.79,5.79,0,0,0,2.1.87l.25.07a10.46,10.46,0,0,1,4.44,2,4.84,4.84,0,0,1,1.09,1.8,7.34,7.34,0,0,1-1.74,7.49,8,8,0,0,1-5.64,2,10,10,0,0,1-3.85-.72,10.79,10.79,0,0,1-3.34-2.26l2.49-4.1Z" transform="translate(-23.58 -40.33)"/><path class="cls-9" d="M391.43,447.06a9.92,9.92,0,0,0,2.43,2.08,4.65,4.65,0,0,0,2.38.7,2.72,2.72,0,0,0,1.82-.6,1.87,1.87,0,0,0,.72-1.51,2,2,0,0,0-.62-1.55,7.72,7.72,0,0,0-2.79-1.13,9,9,0,0,1-4.2-2.09,4.87,4.87,0,0,1-1.23-3.52,6.23,6.23,0,0,1,1.94-4.74,7.07,7.07,0,0,1,5-1.83,11,11,0,0,1,3.18.45,10.3,10.3,0,0,1,2.84,1.36l-1.73,4a7.36,7.36,0,0,0-1.93-1.21,5.14,5.14,0,0,0-2-.41,2.55,2.55,0,0,0-1.61.48,1.48,1.48,0,0,0-.63,1.22,1.52,1.52,0,0,0,.55,1.22,5.86,5.86,0,0,0,2.11.87l.25.07a10.46,10.46,0,0,1,4.44,2,5.11,5.11,0,0,1,1.09,1.8,7.41,7.41,0,0,1-1.74,7.49,8,8,0,0,1-5.65,2,10,10,0,0,1-3.85-.72,10.91,10.91,0,0,1-3.34-2.26l2.49-4.1Z" transform="translate(-23.58 -40.33)"/><path class="cls-9" d="M368.31,372.43V378l-.49,0-.46,0a4.31,4.31,0,0,0-3.06.82q-.78.82-.78,3.39v5.55a7.79,7.79,0,0,1-1.07,4.64,6.35,6.35,0,0,1-3.84,2,6.32,6.32,0,0,1,3.85,1.91c.7.91,1.06,2.45,1.06,4.63v5.59c0,1.7.25,2.82.77,3.36a4.22,4.22,0,0,0,3,.81l.5,0,.5,0v5.61c-.23,0-.56,0-1,0l-.93,0a25.44,25.44,0,0,1-4.17-.28,9.34,9.34,0,0,1-2.77-.85,4.14,4.14,0,0,1-1.92-2.05,12.9,12.9,0,0,1-.54-4.46V402.7c0-2.05-.39-3.5-1.15-4.34a5.1,5.1,0,0,0-3.9-1.26l-.4,0-.44,0v-5.61l.42,0,.42,0a5.07,5.07,0,0,0,3.89-1.28c.77-.86,1.16-2.31,1.16-4.36v-5.88a12.81,12.81,0,0,1,.55-4.48,4.12,4.12,0,0,1,1.91-2.07,9.38,9.38,0,0,1,2.79-.86,27.12,27.12,0,0,1,4.19-.27c.19,0,.49,0,.9,0Z" transform="translate(-23.58 -40.33)"/><path class="cls-9" d="M377,388.14a4.41,4.41,0,0,1,1.36-3.3,4.8,4.8,0,0,1,6.64,0,4.46,4.46,0,0,1,1.34,3.31,4.57,4.57,0,0,1-1.35,3.35,4.71,4.71,0,0,1-6.62,0,4.54,4.54,0,0,1-1.37-3.33Zm.51,10.82h8.64L379,413.48h-6.41Z" transform="translate(-23.58 -40.33)"/><path class="cls-9" d="M390.67,372.43l1,0c.41,0,.71,0,.89,0a26.75,26.75,0,0,1,4.17.27,9.64,9.64,0,0,1,2.8.86,4.12,4.12,0,0,1,1.91,2.07,12.47,12.47,0,0,1,.57,4.48V386c0,2.06.38,3.52,1.14,4.37s2.06,1.27,3.91,1.27l.42,0,.42,0v5.61l-.42,0-.42,0c-1.85,0-3.15.43-3.91,1.28S402,400.67,402,402.7v5.92a12.49,12.49,0,0,1-.57,4.5,4,4,0,0,1-1.91,2.05,8.67,8.67,0,0,1-2.63.83,26.6,26.6,0,0,1-4.11.26l-1,0c-.46,0-.82,0-1.06,0v-5.61l.53,0,.46,0a4.28,4.28,0,0,0,3-.8c.51-.53.77-1.66.77-3.37V400.9c0-2.17.36-3.71,1.07-4.62a6.24,6.24,0,0,1,3.82-1.92,6.32,6.32,0,0,1-3.83-1.95c-.71-.91-1.06-2.46-1.06-4.66V382.2c0-1.71-.26-2.84-.77-3.39a4.05,4.05,0,0,0-2.93-.82l-.52,0-.57,0v-5.61Z" transform="translate(-23.58 -40.33)"/><path class="cls-13" d="M173.27,418.11V336.55a9.88,9.88,0,0,1,9.89-9.88h54.41l40.76,40.76v58.95H173.27v-8.27Z" transform="translate(-23.58 -40.33)"/><path class="cls-14" d="M278.33,426.38V454c0,4.43-4.43,8-9.89,8H183.16c-5.46,0-9.89-3.59-9.89-8V426.38Z" transform="translate(-23.58 -40.33)"/><path class="cls-15" d="M237.55,326.67h0l40.77,40.77v34.08a.57.57,0,0,1-.72,0c-1.93-1.93-38.23-35.73-38.23-38.46,0-12-1.81-36.06-1.83-36.34Z" transform="translate(-23.58 -40.33)"/><path class="cls-14" d="M237.55,326.67h0l40.77,40.77H247.84a10.29,10.29,0,0,1-10.29-10.3V326.67Z" transform="translate(-23.58 -40.33)"/><path class="cls-9" d="M216.93,433.36h5.5v13.13a15.21,15.21,0,0,1-.27,3.29,5.75,5.75,0,0,1-.92,2,5.47,5.47,0,0,1-2.07,1.73,6.36,6.36,0,0,1-2.77.59,6.93,6.93,0,0,1-3.4-.82,7.24,7.24,0,0,1-2.55-2.42l3.37-3a2.44,2.44,0,0,0,.58,1.38,1.52,1.52,0,0,0,1.15.48,1.1,1.1,0,0,0,1.08-.87,18.18,18.18,0,0,0,.3-4.35V433.36Z" transform="translate(-23.58 -40.33)"/><path class="cls-9" d="M227.41,447.06a9.92,9.92,0,0,0,2.43,2.08,4.63,4.63,0,0,0,2.38.7,2.73,2.73,0,0,0,1.82-.6,1.89,1.89,0,0,0,.71-1.51,1.93,1.93,0,0,0-.62-1.55,7.57,7.57,0,0,0-2.78-1.13,9,9,0,0,1-4.2-2.09,4.87,4.87,0,0,1-1.23-3.52,6.2,6.2,0,0,1,1.94-4.74,7,7,0,0,1,5-1.83,11,11,0,0,1,3.17.45,10.16,10.16,0,0,1,2.84,1.36l-1.73,4a7.2,7.2,0,0,0-1.93-1.21,5.09,5.09,0,0,0-1.95-.41,2.6,2.6,0,0,0-1.62.48,1.49,1.49,0,0,0-.62,1.22,1.51,1.51,0,0,0,.54,1.22,6,6,0,0,0,2.11.87l.25.07a10.46,10.46,0,0,1,4.44,2,4.84,4.84,0,0,1,1.09,1.8,7.34,7.34,0,0,1-1.74,7.49,8,8,0,0,1-5.64,2,10,10,0,0,1-3.85-.72,10.79,10.79,0,0,1-3.34-2.26l2.49-4.1Z" transform="translate(-23.58 -40.33)"/><path class="cls-9" d="M210.59,371.35H222.7v28.89a33.08,33.08,0,0,1-.61,7.24,12.82,12.82,0,0,1-2,4.47,12,12,0,0,1-4.56,3.82,13.94,13.94,0,0,1-6.08,1.29,15.41,15.41,0,0,1-7.48-1.79,16,16,0,0,1-5.63-5.32l7.42-6.73a5.39,5.39,0,0,0,1.28,3,3.35,3.35,0,0,0,2.52,1.06,2.43,2.43,0,0,0,2.39-1.92c.43-1.27.65-4.47.65-9.58V371.35Z" transform="translate(-23.58 -40.33)"/><path class="cls-9" d="M228.05,413.32l2.25-8.27a17.6,17.6,0,0,0,5.22,3.18,15.6,15.6,0,0,0,5.73,1.11,5.93,5.93,0,0,0,3.1-.66,2.1,2.1,0,0,0,1.07-1.9q0-2-4.29-3c-.93-.22-1.68-.42-2.25-.58-3.25-.89-5.6-2.06-7.07-3.51A7.58,7.58,0,0,1,229.6,394a8.69,8.69,0,0,1,3.36-7.15c2.24-1.78,5.28-2.68,9.11-2.68a27.25,27.25,0,0,1,6,.69,33.37,33.37,0,0,1,6.25,2.11l-2.25,7.45a18.83,18.83,0,0,0-4.38-2.22,13.81,13.81,0,0,0-4.44-.76,5.49,5.49,0,0,0-2.8.58,1.84,1.84,0,0,0-.94,1.67q0,1.65,4.25,2.77l1.46.4q5.64,1.61,7.84,3.78a7.89,7.89,0,0,1,2.2,5.89,9.32,9.32,0,0,1-3.62,7.62q-3.61,2.89-9.58,2.9a28.88,28.88,0,0,1-7.51-.93,23.81,23.81,0,0,1-6.51-2.81Z" transform="translate(-23.58 -40.33)"/></svg>